<svg xmlns="http://www.w3.org/2000/svg" xmlns:xlink="http://www.w3.org/1999/xlink" width="500" zoomAndPan="magnify" viewBox="0 0 375 374.999991" height="500" preserveAspectRatio="xMidYMid meet" version="1.0"><defs><g/><clipPath id="afe2dc8849"><path d="M 194 125.625 L 225 125.625 L 225 187.875 L 194 187.875 Z M 194 125.625 " clip-rule="nonzero"/></clipPath><clipPath id="ba5228da2c"><path d="M 150 125.625 L 181 125.625 L 181 187.875 L 150 187.875 Z M 150 125.625 " clip-rule="nonzero"/></clipPath></defs><rect x="-37.5" width="450" fill="#ffffff" y="-37.499999" height="449.999989" fill-opacity="1"/><rect x="-37.5" width="450" fill="#000000" y="-37.499999" height="449.999989" fill-opacity="1"/><g clip-path="url(#afe2dc8849)"><path fill="#29acff" d="M 194.015625 125.617188 L 194.015625 138.347656 L 212.296875 156.742188 L 194.015625 175.132812 L 194.015625 187.863281 L 224.953125 156.742188 Z M 194.015625 125.617188 " fill-opacity="1" fill-rule="nonzero"/></g><g clip-path="url(#ba5228da2c)"><path fill="#29acff" d="M 181 138.347656 L 181 125.617188 L 150.0625 156.742188 L 181 187.863281 L 181 175.132812 L 162.71875 156.742188 Z M 181 138.347656 " fill-opacity="1" fill-rule="nonzero"/></g><path fill="#29acff" d="M 172.398438 156.742188 L 187.507812 141.542969 L 202.617188 156.742188 L 187.507812 171.941406 Z M 172.398438 156.742188 " fill-opacity="1" fill-rule="nonzero"/><g fill="#ffffff" fill-opacity="1"><g transform="translate(105.530106, 227.073587)"><g><path d="M 7.03125 0 L 2.453125 0 L 2.453125 -15.171875 L 19.640625 -15.171875 L 19.640625 -11.3125 L 7.03125 -11.3125 L 7.03125 -8.484375 L 16.15625 -8.484375 L 16.15625 -5.0625 L 7.03125 -5.0625 Z M 7.03125 0 "/></g></g></g><g fill="#ffffff" fill-opacity="1"><g transform="translate(127.553465, 227.073587)"><g><path d="M 12.09375 0.359375 C 9.414062 0.359375 7.320312 0.109375 5.8125 -0.390625 C 4.300781 -0.890625 3.210938 -1.707031 2.546875 -2.84375 C 1.890625 -3.976562 1.5625 -5.5625 1.5625 -7.59375 C 1.5625 -9.625 1.890625 -11.207031 2.546875 -12.34375 C 3.203125 -13.488281 4.285156 -14.304688 5.796875 -14.796875 C 7.304688 -15.285156 9.40625 -15.53125 12.09375 -15.53125 C 14.78125 -15.53125 16.878906 -15.285156 18.390625 -14.796875 C 19.898438 -14.304688 20.984375 -13.488281 21.640625 -12.34375 C 22.296875 -11.207031 22.625 -9.625 22.625 -7.59375 C 22.625 -5.5625 22.296875 -3.976562 21.640625 -2.84375 C 20.984375 -1.707031 19.898438 -0.890625 18.390625 -0.390625 C 16.878906 0.109375 14.78125 0.359375 12.09375 0.359375 Z M 12.09375 -3.65625 C 13.9375 -3.65625 15.78125 -3.703125 17.625 -3.796875 L 17.625 -11.40625 C 15.570312 -11.476562 13.726562 -11.515625 12.09375 -11.515625 C 10.457031 -11.515625 8.617188 -11.476562 6.578125 -11.40625 L 6.578125 -3.796875 C 8.410156 -3.703125 10.25 -3.65625 12.09375 -3.65625 Z M 12.09375 -3.65625 "/></g></g></g><g fill="#ffffff" fill-opacity="1"><g transform="translate(153.972401, 227.073587)"><g><path d="M 21.265625 -0.109375 L 21.265625 0 L 15.375 0 L 9.8125 -5.265625 L 7.03125 -5.265625 L 7.03125 0 L 2.453125 0 L 2.453125 -15.171875 L 14.765625 -15.171875 C 16.921875 -15.171875 18.503906 -14.757812 19.515625 -13.9375 C 20.535156 -13.113281 21.046875 -11.875 21.046875 -10.21875 C 21.046875 -8.6875 20.609375 -7.503906 19.734375 -6.671875 C 18.867188 -5.847656 17.507812 -5.382812 15.65625 -5.28125 Z M 16.21875 -11.640625 L 7.03125 -11.640625 L 7.03125 -8.453125 L 16.21875 -8.453125 Z M 16.21875 -11.640625 "/></g></g></g><g fill="#ffffff" fill-opacity="1"><g transform="translate(178.650949, 227.073587)"><g><path d="M 7.03125 0 L 2.453125 0 L 2.453125 -15.171875 L 9.765625 -15.171875 L 13.703125 -6.734375 L 13.8125 -6.734375 L 17.875 -15.171875 L 25.015625 -15.171875 L 25.015625 0 L 20.4375 0 L 20.4375 -12.078125 L 20.328125 -12.078125 L 16.015625 -3.125 L 11.3125 -3.125 L 7.15625 -12.078125 L 7.03125 -12.078125 Z M 7.03125 0 "/></g></g></g><g fill="#ffffff" fill-opacity="1"><g transform="translate(208.349841, 227.073587)"><g><path d="M 16.359375 0 L 1.453125 0 L 1.453125 -3.65625 L 6.734375 -3.65625 L 6.734375 -11.53125 L 1.453125 -11.53125 L 1.453125 -15.171875 L 16.359375 -15.171875 L 16.359375 -11.53125 L 11.09375 -11.53125 L 11.09375 -3.65625 L 16.359375 -3.65625 Z M 16.359375 0 "/></g></g></g><g fill="#ffffff" fill-opacity="1"><g transform="translate(228.387381, 227.073587)"><g><path d="M 7.03125 0 L 2.453125 0 L 2.453125 -15.171875 L 19.640625 -15.171875 L 19.640625 -11.3125 L 7.03125 -11.3125 L 7.03125 -8.484375 L 16.15625 -8.484375 L 16.15625 -5.0625 L 7.03125 -5.0625 Z M 7.03125 0 "/></g></g></g><g fill="#ffffff" fill-opacity="1"><g transform="translate(250.410744, 227.073587)"><g><path d="M 11.828125 0 L 7.25 0 L 7.25 -5.09375 L -0.21875 -15.0625 L -0.21875 -15.171875 L 5.265625 -15.171875 L 9.59375 -9.109375 L 9.703125 -9.109375 L 14.015625 -15.171875 L 19.28125 -15.171875 L 19.28125 -15.0625 L 11.828125 -5.046875 Z M 11.828125 0 "/></g></g></g></svg>